<svg width="21" height="22" viewBox="0 0 21 22" fill="white" xmlns="http://www.w3.org/2000/svg">
<path d="M19.2503 9.97509C18.7442 9.97509 18.3337 9.56454 18.3337 9.05848C18.3337 6.48724 17.3326 4.07092 15.5149 2.25213C15.1565 1.89378 15.1565 1.31454 15.5149 0.95602C15.8732 0.597668 16.4526 0.597668 16.811 0.95602C18.9754 3.12024 20.1669 5.9978 20.1669 9.05848C20.1669 9.56454 19.7563 9.97509 19.2503 9.97509Z"/>
<path d="M0.916611 9.97509C0.410721 9.97509 0 9.56454 0 9.05848C0 5.9978 1.19171 3.12024 3.35593 0.95602C3.71428 0.597668 4.29369 0.597668 4.65204 0.95602C5.01056 1.31454 5.01056 1.89378 4.65204 2.25213C2.83426 4.06991 1.83339 6.48724 1.83339 9.05848C1.83339 9.56454 1.42267 9.97509 0.916611 9.97509Z"/>
<path d="M18.6807 15.5037C17.2946 14.3321 16.4999 12.6197 16.4999 10.8056V8.25C16.4999 5.02432 14.1037 2.35405 10.9999 1.90674V0.916611C10.9999 0.409714 10.5892 0 10.0833 0C9.57722 0 9.1665 0.409714 9.1665 0.916611V1.90674C6.06184 2.35405 3.6665 5.02432 3.6665 8.25V10.8056C3.6665 12.6197 2.87175 14.3321 1.47762 15.5109C1.12094 15.8162 0.916504 16.2598 0.916504 16.7291C0.916504 17.6138 1.63606 18.3334 2.52078 18.3334H17.6458C18.5303 18.3334 19.2499 17.6138 19.2499 16.7291C19.2499 16.2598 19.0455 15.8162 18.6807 15.5037Z"/>
<path d="M10.0837 22C11.7437 22 13.1324 20.8165 13.4515 19.25H6.71582C7.03473 20.8165 8.42349 22 10.0837 22Z"/>
</svg>
