<svg width="20" height="20" viewBox="0 0 20 20" fill="white" xmlns="http://www.w3.org/2000/svg">
<path d="M8.04169 9.9893L10.531 6.39981C10.8677 5.9143 11.4023 5.60771 11.9854 5.55626C11.9736 5.43253 11.9365 5.30933 11.8698 5.19486C11.6236 4.7723 11.0814 4.62925 10.6588 4.87546L10.064 5.222C10.2033 4.96022 10.2089 4.6349 10.0486 4.35985C9.8024 3.93728 9.26024 3.79424 8.83761 4.04044L3.51278 7.14244L4.10139 5.64661C4.28051 5.19145 4.05671 4.67728 3.60155 4.49836C3.14646 4.31924 2.63236 4.54304 2.45331 4.99814C2.45331 4.99814 1.31295 7.87463 0.942689 8.83731C0.575054 9.7931 0.33049 10.4968 0.793795 11.2922L1.8628 13.1271C2.40889 14.0644 3.50917 14.4822 4.50931 14.2084L4.31199 11.0343C4.24405 9.94173 5.07315 9.00217 6.16593 8.9343C6.96257 8.88469 7.68608 9.3156 8.04169 9.9893Z"/>
<path d="M14.5316 4.92856C14.7241 5.12102 15.0361 5.12095 15.2285 4.92856L17.6415 2.51557C17.834 2.32305 17.834 2.01107 17.6415 1.81861C17.449 1.62622 17.137 1.62622 16.9445 1.81861L14.5316 4.23153C14.3391 4.42406 14.3391 4.73604 14.5316 4.92856Z"/>
<path d="M13.1056 3.42492C13.3645 3.50739 13.642 3.3646 13.7247 3.10486L14.5088 0.642591C14.5914 0.383308 14.448 0.106087 14.1887 0.0234926C13.9293 -0.0594306 13.6522 0.0842066 13.5696 0.343555L12.7856 2.80582C12.703 3.06517 12.8463 3.34233 13.1056 3.42492Z"/>
<path d="M19.4369 5.27145C19.3543 5.01217 19.0773 4.86867 18.8178 4.95139L16.3555 5.73535C16.0772 5.82399 15.9289 6.13952 16.0611 6.417C16.0816 6.44775 16.1013 6.47897 16.1199 6.51083C16.2452 6.6684 16.4555 6.73792 16.6545 6.67451L19.1168 5.89049C19.3762 5.80796 19.5194 5.5308 19.4369 5.27145Z"/>
<path d="M15.9261 11.7885C15.6349 11.5866 15.2704 11.5607 14.9616 11.6949L15.9026 10.3378C16.2159 9.88617 16.1036 9.26608 15.6519 8.95292C15.3607 8.75093 14.9962 8.72511 14.6874 8.85935L15.2278 8.08006C15.541 7.62838 15.4288 7.0083 14.9771 6.69507C14.5261 6.38223 13.9058 6.49348 13.5922 6.94574L13.1513 7.58147C13.1687 7.24866 13.0196 6.9148 12.7256 6.7109C12.2744 6.398 11.6542 6.50951 11.3407 6.96158L7.39399 12.6526L7.28189 10.8496C7.24779 10.301 6.77548 9.88387 6.22689 9.9181C5.67829 9.95214 5.26125 10.4246 5.29542 10.9731C5.29542 10.9731 5.49812 14.4447 5.58308 15.6007C5.66936 16.7747 5.74893 17.5817 6.59893 18.1711L8.56004 19.5311C9.01704 19.848 9.54027 20 10.0583 20C10.8941 20 11.7167 19.6045 12.228 18.8672C13.083 17.6344 15.4267 14.2547 16.1767 13.1733C16.49 12.7218 16.3778 12.1017 15.9261 11.7885Z"/>
</svg>
