<svg width="22" height="22" viewBox="0 0 22 22" fill="white" xmlns="http://www.w3.org/2000/svg">
<path fill-rule="evenodd" clip-rule="evenodd" d="M11 0C4.92488 0 0 4.92488 0 11C0 17.0751 4.92488 22 11 22C17.0751 22 22 17.0751 22 11C22 4.92488 17.0751 0 11 0ZM19.7693 13.7947L19.9756 14.2208C19.4939 15.5628 18.7199 16.7654 17.7302 17.7519L14.6763 14.1427C15.4252 11.8051 18.6814 11.5467 19.7693 13.7947ZM10.6681 11.6764L16.6153 18.7049C15.0403 19.8547 13.0994 20.5333 11 20.5333C7.377 20.5333 4.22605 18.5123 2.61298 15.5362L4.75966 12.1015C6.07647 9.99464 9.06323 9.77973 10.6681 11.6764ZM13.2 5.86667C13.2 4.65164 14.185 3.66667 15.4 3.66667C16.615 3.66667 17.6 4.65164 17.6 5.86667C17.6 7.08169 16.615 8.06667 15.4 8.06667C14.185 8.06667 13.2 7.08169 13.2 5.86667Z"/>
</svg>
