<svg width="24" height="25" viewBox="0 0 24 25" fill="none" xmlns="http://www.w3.org/2000/svg">
<g clip-path="url(#clip0_127_5324)">
<path d="M12 0.5C9.61402 0.503165 7.32668 1.45239 5.63953 3.13953C3.95239 4.82668 3.00317 7.11402 3 9.5C3 15.9613 11.385 24.0538 11.7413 24.395C11.8105 24.4623 11.9034 24.5 12 24.5C12.0966 24.5 12.1895 24.4623 12.2587 24.395C12.615 24.0538 21 15.9613 21 9.5C20.9968 7.11402 20.0476 4.82668 18.3605 3.13953C16.6733 1.45239 14.386 0.503165 12 0.5ZM12 13.625C11.1842 13.625 10.3866 13.3831 9.70827 12.9298C9.02992 12.4766 8.50121 11.8323 8.189 11.0786C7.87679 10.3248 7.7951 9.49542 7.95426 8.69525C8.11343 7.89508 8.50629 7.16008 9.08318 6.58318C9.66008 6.00629 10.3951 5.61342 11.1953 5.45426C11.9954 5.2951 12.8248 5.37679 13.5786 5.689C14.3323 6.00121 14.9766 6.52992 15.4298 7.20827C15.8831 7.88663 16.125 8.68415 16.125 9.5C16.1243 10.5938 15.6895 11.6426 14.9161 12.4161C14.1426 13.1895 13.0938 13.6243 12 13.625Z" fill="white"/>
</g>
<defs>
<clipPath id="clip0_127_5324">
<rect width="24" height="24" fill="white" transform="translate(0 0.5)"/>
</clipPath>
</defs>
</svg>
